<svg width="75" height="23" viewBox="0 0 75 23" fill="none" xmlns="http://www.w3.org/2000/svg">
<path d="M11.584 12.704C10.96 13.424 10.328 14.024 9.688 14.504C9.064 14.984 8.472 15.384 7.912 15.704C7.656 15.976 7.376 16.2 7.072 16.376C6.768 16.552 6.448 16.704 6.112 16.832C5.776 16.944 5.44 17.024 5.104 17.072C4.768 17.12 4.448 17.144 4.144 17.144C3.536 17.144 3.008 17.056 2.56 16.88C2.128 16.688 1.768 16.448 1.48 16.16C1.192 15.872 0.984 15.544 0.856 15.176C0.712 14.808 0.64 14.44 0.64 14.072C0.64 13.512 0.768 13.04 1.024 12.656C1.28 12.272 1.576 12 1.912 11.84C2.584 10.64 3.152 9.456 3.616 8.288C4.08 7.104 4.496 5.92 4.864 4.736L8.416 4.256C8.48 5.808 8.544 7.064 8.608 8.024C8.672 8.984 8.728 9.768 8.776 10.376C8.824 10.968 8.864 11.456 8.896 11.84C8.928 12.208 8.944 12.592 8.944 12.992C8.944 13.344 8.912 13.648 8.848 13.904C9.536 13.504 10.112 13.104 10.576 12.704H11.584ZM3.616 12.704C3.616 12.992 3.52 13.264 3.328 13.52C3.136 13.76 2.88 13.88 2.56 13.88C2.432 13.88 2.304 13.864 2.176 13.832C2.064 13.784 1.976 13.696 1.912 13.568C1.912 14.128 2.024 14.552 2.248 14.84C2.472 15.112 2.848 15.248 3.376 15.248C3.632 15.248 3.888 15.216 4.144 15.152C4.4 15.072 4.624 14.944 4.816 14.768C5.008 14.592 5.16 14.36 5.272 14.072C5.4 13.784 5.464 13.432 5.464 13.016C5.464 12.712 5.448 12.416 5.416 12.128C5.4 11.84 5.368 11.496 5.32 11.096C5.288 10.696 5.24 10.2 5.176 9.608C5.128 9.016 5.072 8.256 5.008 7.328C4.768 8.112 4.48 8.872 4.144 9.608C3.824 10.344 3.464 11.096 3.064 11.864C3.224 11.944 3.352 12.056 3.448 12.2C3.56 12.328 3.616 12.496 3.616 12.704ZM17.4841 8.312C17.4841 7.496 17.1961 7.088 16.6201 7.088C16.1881 7.088 15.8121 7.304 15.4921 7.736C15.1721 8.168 14.9241 8.688 14.7481 9.296L13.1161 17H9.66006L13.1401 0.68L16.6921 0.199999L15.3961 6.248C15.9081 5.672 16.4121 5.304 16.9081 5.144C17.4041 4.984 17.8361 4.904 18.2041 4.904C18.9721 4.904 19.6041 5.12 20.1001 5.552C20.6121 5.968 20.8681 6.656 20.8681 7.616C20.8681 8.096 20.8041 8.632 20.6761 9.224C20.5641 9.8 20.4361 10.376 20.2921 10.952C20.1481 11.512 20.0121 12.048 19.8841 12.56C19.7721 13.056 19.7161 13.472 19.7161 13.808C19.7161 14.112 19.7801 14.36 19.9081 14.552C20.0521 14.728 20.3081 14.816 20.6761 14.816C20.9321 14.816 21.1561 14.768 21.3481 14.672C21.5561 14.56 21.7321 14.416 21.8761 14.24C22.0361 14.048 22.1801 13.824 22.3081 13.568C22.4361 13.312 22.5641 13.024 22.6921 12.704H23.7001C23.3641 13.696 23.0041 14.488 22.6201 15.08C22.2361 15.656 21.8441 16.096 21.4441 16.4C21.0441 16.704 20.6521 16.904 20.2681 17C19.9001 17.096 19.5561 17.144 19.2361 17.144C18.7081 17.144 18.2601 17.072 17.8921 16.928C17.5401 16.768 17.2521 16.56 17.0281 16.304C16.8041 16.048 16.6441 15.76 16.5481 15.44C16.4521 15.104 16.4041 14.768 16.4041 14.432C16.4041 14.032 16.4601 13.56 16.5721 13.016C16.6841 12.456 16.8041 11.896 16.9321 11.336C17.0761 10.776 17.2041 10.232 17.3161 9.704C17.4281 9.16 17.4841 8.696 17.4841 8.312ZM28.9293 4.88C30.9453 4.88 31.9693 6.136 32.0013 8.648C32.0653 8.664 32.1533 8.672 32.2653 8.672C32.5373 8.672 32.8333 8.632 33.1533 8.552C33.4893 8.472 33.8173 8.368 34.1373 8.24C34.4733 8.096 34.7933 7.936 35.0973 7.76C35.4173 7.584 35.7053 7.408 35.9613 7.232L36.1773 7.88C35.7133 8.376 35.1053 8.8 34.3533 9.152C33.6173 9.488 32.8173 9.728 31.9533 9.872C31.8573 10.992 31.6413 12 31.3053 12.896C30.9693 13.792 30.5453 14.56 30.0333 15.2C29.5213 15.824 28.9373 16.304 28.2812 16.64C27.6253 16.976 26.9293 17.144 26.1933 17.144C25.6333 17.144 25.1133 17.08 24.6333 16.952C24.1693 16.808 23.7693 16.584 23.4333 16.28C23.0973 15.976 22.8333 15.584 22.6413 15.104C22.4493 14.624 22.3533 14.04 22.3533 13.352C22.3533 12.888 22.4013 12.36 22.4973 11.768C22.5933 11.176 22.7453 10.568 22.9533 9.944C23.1773 9.304 23.4573 8.688 23.7933 8.096C24.1293 7.488 24.5373 6.944 25.0173 6.464C25.5133 5.984 26.0813 5.6 26.7213 5.312C27.3613 5.024 28.0973 4.88 28.9293 4.88ZM27.1533 14.888C27.4413 14.888 27.7293 14.768 28.0173 14.528C28.3213 14.272 28.5933 13.928 28.8333 13.496C29.0893 13.048 29.3133 12.52 29.5053 11.912C29.6973 11.304 29.8413 10.648 29.9373 9.944C29.6813 9.88 29.5053 9.76 29.4093 9.584C29.3293 9.392 29.2893 9.176 29.2893 8.936C29.2893 8.6 29.3533 8.328 29.4813 8.12C29.6253 7.896 29.8093 7.744 30.0333 7.664C30.0013 7.168 29.9133 6.824 29.7693 6.632C29.6413 6.424 29.4253 6.32 29.1213 6.32C28.6893 6.32 28.2813 6.56 27.8973 7.04C27.5133 7.504 27.1773 8.08 26.8893 8.768C26.6013 9.44 26.3693 10.16 26.1933 10.928C26.0173 11.68 25.9293 12.352 25.9293 12.944C25.9293 13.344 25.9453 13.672 25.9773 13.928C26.0253 14.168 26.0973 14.36 26.1933 14.504C26.2893 14.648 26.4173 14.752 26.5773 14.816C26.7373 14.864 26.9293 14.888 27.1533 14.888ZM38.5161 4.112L38.1321 5.912C38.4841 5.608 38.8841 5.36 39.3321 5.168C39.7961 4.976 40.3321 4.88 40.9401 4.88C41.3401 4.88 41.7161 4.944 42.0681 5.072C42.4361 5.2 42.7481 5.416 43.0041 5.72C43.2761 6.008 43.4841 6.392 43.6281 6.872C43.7881 7.352 43.8681 7.952 43.8681 8.672C43.8681 9.216 43.8281 9.8 43.7481 10.424C43.6841 11.048 43.5561 11.68 43.3641 12.32C43.1881 12.944 42.9481 13.552 42.6441 14.144C42.3561 14.72 41.9961 15.232 41.5641 15.68C41.1321 16.112 40.6121 16.464 40.0041 16.736C39.4121 17.008 38.7321 17.144 37.9641 17.144C37.3561 17.144 36.8921 17.056 36.5721 16.88C36.2681 16.704 36.0521 16.504 35.9241 16.28L34.6761 22.136L31.0521 23L35.0601 4.112H38.5161ZM37.2201 15.056C37.8441 15.056 38.3721 14.824 38.8041 14.36C39.2361 13.896 39.5801 13.336 39.8361 12.68C40.1081 12.008 40.3001 11.304 40.4121 10.568C40.5241 9.816 40.5801 9.16 40.5801 8.6C40.5801 8.136 40.5321 7.776 40.4361 7.52C40.3561 7.248 40.2521 7.048 40.1241 6.92C40.0121 6.776 39.8841 6.688 39.7401 6.656C39.6121 6.624 39.4921 6.608 39.3801 6.608C39.1081 6.608 38.8201 6.712 38.5161 6.92C38.2121 7.112 37.9481 7.4 37.7241 7.784L36.3081 14.504C36.3561 14.632 36.4521 14.76 36.5961 14.888C36.7401 15 36.9481 15.056 37.2201 15.056ZM49.7427 4.112L49.3587 5.912C49.7107 5.608 50.1107 5.36 50.5587 5.168C51.0227 4.976 51.5587 4.88 52.1667 4.88C52.5667 4.88 52.9427 4.944 53.2947 5.072C53.6627 5.2 53.9747 5.416 54.2307 5.72C54.5027 6.008 54.7107 6.392 54.8547 6.872C55.0147 7.352 55.0947 7.952 55.0947 8.672C55.0947 9.216 55.0547 9.8 54.9747 10.424C54.9107 11.048 54.7827 11.68 54.5907 12.32C54.4147 12.944 54.1747 13.552 53.8707 14.144C53.5827 14.72 53.2227 15.232 52.7907 15.68C52.3587 16.112 51.8387 16.464 51.2307 16.736C50.6387 17.008 49.9587 17.144 49.1907 17.144C48.5827 17.144 48.1187 17.056 47.7987 16.88C47.4947 16.704 47.2787 16.504 47.1507 16.28L45.9027 22.136L42.2787 23L46.2867 4.112H49.7427ZM48.4467 15.056C49.0707 15.056 49.5987 14.824 50.0307 14.36C50.4627 13.896 50.8067 13.336 51.0627 12.68C51.3347 12.008 51.5267 11.304 51.6387 10.568C51.7507 9.816 51.8067 9.16 51.8067 8.6C51.8067 8.136 51.7587 7.776 51.6627 7.52C51.5827 7.248 51.4787 7.048 51.3507 6.92C51.2387 6.776 51.1107 6.688 50.9667 6.656C50.8387 6.624 50.7187 6.608 50.6067 6.608C50.3347 6.608 50.0467 6.712 49.7427 6.92C49.4387 7.112 49.1747 7.4 48.9507 7.784L47.5347 14.504C47.5827 14.632 47.6787 14.76 47.8227 14.888C47.9667 15 48.1747 15.056 48.4467 15.056ZM58.9293 13.112C58.9293 13.928 59.0733 14.472 59.3613 14.744C59.6493 15 60.0813 15.128 60.6573 15.128C61.1373 15.128 61.5693 15.064 61.9533 14.936C62.3373 14.808 62.6973 14.64 63.0333 14.432C63.3693 14.208 63.6893 13.952 63.9933 13.664C64.2973 13.36 64.6013 13.04 64.9053 12.704H65.7213C65.3853 13.264 65.0013 13.808 64.5693 14.336C64.1373 14.864 63.6493 15.336 63.1053 15.752C62.5613 16.168 61.9613 16.504 61.3053 16.76C60.6493 17.016 59.9213 17.144 59.1213 17.144C57.9853 17.144 57.0733 16.848 56.3853 16.256C55.7133 15.664 55.3773 14.688 55.3773 13.328C55.3773 12.864 55.4253 12.336 55.5213 11.744C55.6173 11.152 55.7613 10.544 55.9533 9.92C56.1613 9.296 56.4333 8.688 56.7693 8.096C57.1053 7.488 57.5133 6.944 57.9933 6.464C58.4733 5.984 59.0333 5.6 59.6733 5.312C60.3133 5.024 61.0413 4.88 61.8573 4.88C62.3853 4.88 62.8173 4.944 63.1533 5.072C63.5053 5.2 63.7773 5.376 63.9693 5.6C64.1773 5.808 64.3133 6.048 64.3773 6.32C64.4573 6.592 64.4973 6.88 64.4973 7.184C64.4973 7.856 64.3453 8.488 64.0413 9.08C63.7373 9.672 63.3293 10.192 62.8173 10.64C62.3053 11.072 61.7133 11.424 61.0413 11.696C60.3853 11.952 59.6973 12.104 58.9773 12.152C58.9613 12.328 58.9453 12.496 58.9293 12.656C58.9293 12.816 58.9293 12.968 58.9293 13.112ZM62.6493 7.136C62.6493 6.832 62.6013 6.592 62.5053 6.416C62.4253 6.24 62.2733 6.152 62.0493 6.152C61.7453 6.152 61.4493 6.296 61.1613 6.584C60.8733 6.872 60.6013 7.248 60.3453 7.712C60.0893 8.16 59.8573 8.672 59.6493 9.248C59.4573 9.824 59.2973 10.408 59.1693 11C59.6333 10.968 60.0733 10.84 60.4893 10.616C60.9213 10.392 61.2973 10.104 61.6172 9.752C61.9373 9.4 62.1853 9 62.3613 8.552C62.5533 8.088 62.6493 7.616 62.6493 7.136ZM69.9882 5L69.6522 6.512C70.1162 6.064 70.5962 5.68 71.0922 5.36C71.6042 5.04 72.1002 4.88 72.5802 4.88C73.1242 4.88 73.5322 5.064 73.8042 5.432C74.0922 5.8 74.2362 6.216 74.2362 6.68C74.2362 6.888 74.1962 7.096 74.1162 7.304C74.0522 7.512 73.9482 7.704 73.8042 7.88C73.6602 8.04 73.4762 8.176 73.2522 8.288C73.0442 8.384 72.7962 8.432 72.5082 8.432C72.1722 8.432 71.9402 8.352 71.8122 8.192C71.7002 8.032 71.6202 7.864 71.5722 7.688C71.5242 7.496 71.4762 7.32 71.4282 7.16C71.3962 7 71.2922 6.92 71.1162 6.92C70.8122 6.92 70.5242 7.008 70.2522 7.184C69.9802 7.36 69.6842 7.592 69.3642 7.88L67.4442 17H63.9882L66.5322 5H69.9882Z" fill="#008AEE"/>
</svg>
